<svg xmlns="http://www.w3.org/2000/svg" xmlns:xlink="http://www.w3.org/1999/xlink" viewBox="0 0 300 150" width="300" height="150"><path d="M 65.250,34.000 C 65.250,37.000 65.250,37.000 65.250,40.000" stroke-width="5.430" stroke="rgb(66, 133, 244)" fill="none" stroke-linecap="round"></path><path d="M 65.250,40.000 C 65.250,47.500 65.250,47.500 65.250,55.000" stroke-width="4.263" stroke="rgb(66, 133, 244)" fill="none" stroke-linecap="round"></path><path d="M 65.250,55.000 C 65.250,63.500 66.379,63.612 65.250,72.000" stroke-width="3.201" stroke="rgb(66, 133, 244)" fill="none" stroke-linecap="round"></path><path d="M 65.250,72.000 C 62.879,89.612 60.454,89.372 58.250,107.000" stroke-width="2.086" stroke="rgb(66, 133, 244)" fill="none" stroke-linecap="round"></path><path d="M 58.250,107.000 C 56.954,117.372 58.534,117.509 58.250,128.000" stroke-width="2.317" stroke="rgb(66, 133, 244)" fill="none" stroke-linecap="round"></path><path d="M 58.250,128.000 C 58.034,136.009 59.539,136.807 57.250,144.000" stroke-width="2.693" stroke="rgb(66, 133, 244)" fill="none" stroke-linecap="round"></path><path d="M 57.250,144.000 C 56.039,147.807 52.435,151.382 51.250,150.000" stroke-width="4.035" stroke="rgb(66, 133, 244)" fill="none" stroke-linecap="round"></path><path d="M 70.250,42.000 C 73.250,42.500 75.519,40.492 76.250,43.000" stroke-width="5.363" stroke="rgb(66, 133, 244)" fill="none" stroke-linecap="round"></path><path d="M 76.250,43.000 C 79.019,52.492 76.160,54.559 77.250,66.000" stroke-width="3.705" stroke="rgb(66, 133, 244)" fill="none" stroke-linecap="round"></path><path d="M 77.250,66.000 C 78.160,75.559 79.191,75.465 80.250,85.000" stroke-width="2.955" stroke="rgb(66, 133, 244)" fill="none" stroke-linecap="round"></path><path d="M 80.250,85.000 C 80.691,88.965 79.434,89.193 80.250,93.000" stroke-width="3.515" stroke="rgb(66, 133, 244)" fill="none" stroke-linecap="round"></path><path d="M 80.250,93.000 C 80.934,96.193 82.826,100.556 83.250,99.000" stroke-width="3.862" stroke="rgb(66, 133, 244)" fill="none" stroke-linecap="round"></path><path d="M 83.250,99.000 C 84.326,95.056 83.250,90.500 83.250,82.000" stroke-width="4.503" stroke="rgb(66, 133, 244)" fill="none" stroke-linecap="round"></path><path d="M 83.250,82.000 C 83.250,78.500 82.058,78.219 83.250,75.000" stroke-width="4.073" stroke="rgb(66, 133, 244)" fill="none" stroke-linecap="round"></path><path d="M 83.250,75.000 C 87.058,64.719 87.109,64.212 93.250,55.000" stroke-width="2.688" stroke="rgb(66, 133, 244)" fill="none" stroke-linecap="round"></path><path d="M 93.250,55.000 C 98.109,47.712 99.002,48.248 105.250,42.000" stroke-width="2.676" stroke="rgb(66, 133, 244)" fill="none" stroke-linecap="round"></path><path d="M 105.250,42.000 C 110.002,37.248 109.659,35.960 115.250,33.000" stroke-width="3.481" stroke="rgb(66, 133, 244)" fill="none" stroke-linecap="round"></path><path d="M 115.250,33.000 C 118.159,31.460 118.750,33.000 122.250,33.000" stroke-width="4.303" stroke="rgb(66, 133, 244)" fill="none" stroke-linecap="round"></path><path d="M 122.250,33.000 C 124.750,33.000 125.732,31.356 127.250,33.000" stroke-width="4.291" stroke="rgb(66, 133, 244)" fill="none" stroke-linecap="round"></path><path d="M 127.250,33.000 C 131.732,37.856 132.319,39.104 134.250,46.000" stroke-width="3.999" stroke="rgb(66, 133, 244)" fill="none" stroke-linecap="round"></path><path d="M 134.250,46.000 C 135.819,51.604 134.250,52.000 134.250,58.000" stroke-width="3.481" stroke="rgb(66, 133, 244)" fill="none" stroke-linecap="round"></path><path d="M 134.250,58.000 C 134.250,63.500 134.479,63.509 134.250,69.000" stroke-width="3.376" stroke="rgb(66, 133, 244)" fill="none" stroke-linecap="round"></path><path d="M 134.250,69.000 C 133.979,75.509 134.752,75.741 133.250,82.000" stroke-width="3.178" stroke="rgb(66, 133, 244)" fill="none" stroke-linecap="round"></path><path d="M 133.250,82.000 C 131.752,88.241 130.772,88.009 128.250,94.000" stroke-width="3.125" stroke="rgb(66, 133, 244)" fill="none" stroke-linecap="round"></path><path d="M 128.250,94.000 C 126.772,97.509 126.448,97.406 125.250,101.000" stroke-width="3.621" stroke="rgb(66, 133, 244)" fill="none" stroke-linecap="round"></path><path d="M 125.250,101.000 C 124.448,103.406 124.461,103.471 124.250,106.000" stroke-width="4.049" stroke="rgb(66, 133, 244)" fill="none" stroke-linecap="round"></path><path d="M 124.250,106.000 C 123.961,109.471 125.606,112.774 124.250,113.000" stroke-width="3.953" stroke="rgb(66, 133, 244)" fill="none" stroke-linecap="round"></path><path d="M 124.250,113.000 C 122.606,113.274 121.765,108.757 118.250,107.000" stroke-width="4.892" stroke="rgb(66, 133, 244)" fill="none" stroke-linecap="round"></path><path d="M 118.250,107.000 C 115.765,105.757 115.250,107.000 112.250,107.000" stroke-width="4.302" stroke="rgb(66, 133, 244)" fill="none" stroke-linecap="round"></path><path d="M 112.250,107.000 C 101.250,107.000 101.021,105.310 90.250,107.000" stroke-width="2.815" stroke="rgb(66, 133, 244)" fill="none" stroke-linecap="round"></path><path d="M 90.250,107.000 C 75.521,109.310 76.025,112.820 61.250,115.000" stroke-width="2.081" stroke="rgb(66, 133, 244)" fill="none" stroke-linecap="round"></path><path d="M 61.250,115.000 C 45.525,117.320 45.253,115.704 29.250,116.000" stroke-width="1.932" stroke="rgb(66, 133, 244)" fill="none" stroke-linecap="round"></path><path d="M 29.250,116.000 C 18.253,116.204 11.607,123.146 7.250,116.000" stroke-width="2.269" stroke="rgb(66, 133, 244)" fill="none" stroke-linecap="round"></path><path d="M 7.250,116.000 C -0.893,102.646 -0.785,91.784 4.250,75.000" stroke-width="3.196" stroke="rgb(66, 133, 244)" fill="none" stroke-linecap="round"></path><path d="M 4.250,75.000 C 6.715,66.784 12.968,69.570 22.250,66.000" stroke-width="2.668" stroke="rgb(66, 133, 244)" fill="none" stroke-linecap="round"></path><path d="M 22.250,66.000 C 25.968,64.570 26.239,65.401 30.250,65.000" stroke-width="3.417" stroke="rgb(66, 133, 244)" fill="none" stroke-linecap="round"></path><path d="M 30.250,65.000 C 46.239,63.401 46.218,62.815 62.250,62.000" stroke-width="2.235" stroke="rgb(66, 133, 244)" fill="none" stroke-linecap="round"></path><path d="M 62.250,62.000 C 75.718,61.315 75.750,62.000 89.250,62.000" stroke-width="2.191" stroke="rgb(66, 133, 244)" fill="none" stroke-linecap="round"></path><path d="M 89.250,62.000 C 94.250,62.000 94.292,61.417 99.250,62.000" stroke-width="2.989" stroke="rgb(66, 133, 244)" fill="none" stroke-linecap="round"></path><path d="M 99.250,62.000 C 119.792,64.417 119.662,66.210 140.250,68.000" stroke-width="1.828" stroke="rgb(66, 133, 244)" fill="none" stroke-linecap="round"></path><path d="M 140.250,68.000 C 154.162,69.210 154.250,68.000 168.250,68.000" stroke-width="2.026" stroke="rgb(66, 133, 244)" fill="none" stroke-linecap="round"></path><path d="M 168.250,68.000 C 173.750,68.000 173.750,68.000 179.250,68.000" stroke-width="2.793" stroke="rgb(66, 133, 244)" fill="none" stroke-linecap="round"></path><path d="M 179.250,68.000 C 191.750,68.000 192.158,69.727 204.250,68.000" stroke-width="2.410" stroke="rgb(66, 133, 244)" fill="none" stroke-linecap="round"></path><path d="M 204.250,68.000 C 209.658,67.227 209.759,66.109 214.250,63.000" stroke-width="3.023" stroke="rgb(66, 133, 244)" fill="none" stroke-linecap="round"></path><path d="M 214.250,63.000 C 216.259,61.609 218.267,60.598 217.250,59.000" stroke-width="4.240" stroke="rgb(66, 133, 244)" fill="none" stroke-linecap="round"></path><path d="M 217.250,59.000 C 214.767,55.098 212.806,54.357 207.250,52.000" stroke-width="3.514" stroke="rgb(66, 133, 244)" fill="none" stroke-linecap="round"></path><path d="M 207.250,52.000 C 196.306,47.357 195.957,47.624 184.250,45.000" stroke-width="2.592" stroke="rgb(66, 133, 244)" fill="none" stroke-linecap="round"></path><path d="M 184.250,45.000 C 166.957,41.124 166.836,40.991 149.250,39.000" stroke-width="1.999" stroke="rgb(66, 133, 244)" fill="none" stroke-linecap="round"></path><path d="M 149.250,39.000 C 140.336,37.991 138.762,35.073 131.250,39.000" stroke-width="2.462" stroke="rgb(66, 133, 244)" fill="none" stroke-linecap="round"></path><path d="M 131.250,39.000 C 116.762,46.573 115.343,49.190 105.250,62.000" stroke-width="1.937" stroke="rgb(66, 133, 244)" fill="none" stroke-linecap="round"></path><path d="M 105.250,62.000 C 102.343,65.690 105.250,67.000 105.250,72.000" stroke-width="2.800" stroke="rgb(66, 133, 244)" fill="none" stroke-linecap="round"></path><path d="M 105.250,72.000 C 105.250,76.500 105.250,76.500 105.250,81.000" stroke-width="3.316" stroke="rgb(66, 133, 244)" fill="none" stroke-linecap="round"></path><path d="M 105.250,81.000 C 105.250,88.500 106.206,88.673 105.250,96.000" stroke-width="3.139" stroke="rgb(66, 133, 244)" fill="none" stroke-linecap="round"></path><path d="M 105.250,96.000 C 104.706,100.173 105.314,101.753 102.250,104.000" stroke-width="3.979" stroke="rgb(66, 133, 244)" fill="none" stroke-linecap="round"></path><path d="M 102.250,104.000 C 97.814,107.253 96.266,105.568 90.250,107.000" stroke-width="3.444" stroke="rgb(66, 133, 244)" fill="none" stroke-linecap="round"></path><path d="M 90.250,107.000 C 85.766,108.068 85.789,108.352 81.250,109.000" stroke-width="3.530" stroke="rgb(66, 133, 244)" fill="none" stroke-linecap="round"></path><path d="M 81.250,109.000 C 78.789,109.352 78.750,109.000 76.250,109.000" stroke-width="4.065" stroke="rgb(66, 133, 244)" fill="none" stroke-linecap="round"></path><path d="M 76.250,109.000 C 70.750,109.000 70.750,109.000 65.250,109.000" stroke-width="3.587" stroke="rgb(66, 133, 244)" fill="none" stroke-linecap="round"></path><path d="M 65.250,109.000 C 61.750,109.000 57.857,110.179 58.250,109.000" stroke-width="3.899" stroke="rgb(66, 133, 244)" fill="none" stroke-linecap="round"></path><path d="M 58.250,109.000 C 58.857,107.179 62.264,104.994 67.250,103.000" stroke-width="4.549" stroke="rgb(66, 133, 244)" fill="none" stroke-linecap="round"></path><path d="M 67.250,103.000 C 82.264,96.994 82.395,96.272 98.250,93.000" stroke-width="2.406" stroke="rgb(66, 133, 244)" fill="none" stroke-linecap="round"></path><path d="M 98.250,93.000 C 113.895,89.772 114.223,91.129 130.250,90.000" stroke-width="2.064" stroke="rgb(66, 133, 244)" fill="none" stroke-linecap="round"></path><path d="M 130.250,90.000 C 149.723,88.629 149.871,90.095 169.250,88.000" stroke-width="1.800" stroke="rgb(66, 133, 244)" fill="none" stroke-linecap="round"></path><path d="M 169.250,88.000 C 186.871,86.095 186.605,83.291 204.250,82.000" stroke-width="1.815" stroke="rgb(66, 133, 244)" fill="none" stroke-linecap="round"></path><path d="M 204.250,82.000 C 227.605,80.291 227.750,82.000 251.250,82.000" stroke-width="1.578" stroke="rgb(66, 133, 244)" fill="none" stroke-linecap="round"></path><path d="M 251.250,82.000 C 257.250,82.000 257.250,82.000 263.250,82.000" stroke-width="2.451" stroke="rgb(66, 133, 244)" fill="none" stroke-linecap="round"></path><path d="M 263.250,82.000 C 266.250,82.000 266.277,82.270 269.250,82.000" stroke-width="3.598" stroke="rgb(66, 133, 244)" fill="none" stroke-linecap="round"></path></svg>